<svg width="268" height="54" viewBox="0 0 268 54" fill="none" xmlns="http://www.w3.org/2000/svg">
<path d="M0 26.0628V21.6387C2.93393 17.9752 7.26475 13.5165 12.52 9.65193C19.4924 4.52467 28.2407 0.335274 37.6184 0.611089C43.7609 0.79175 48.2921 4.15986 51.9499 8.85513C55.5324 13.4538 58.4093 19.4957 61.2391 25.4388L61.3509 25.6736C64.2499 31.7616 67.1164 37.7433 70.7014 42.3798C74.2639 46.9871 78.4243 50.1191 83.8757 50.7248C95.0202 51.9631 102.978 44.4358 111.651 35.9302L112.144 35.4466C120.481 27.2647 129.502 18.4114 142.407 18.4114C155.462 18.4114 164.047 26.4865 172.27 34.2216L172.402 34.3453C180.774 42.2205 188.828 49.7354 201.099 50.0574C201.939 50.0527 203.232 49.6721 204.898 48.8294C206.536 48.0004 208.402 46.793 210.333 45.3046C214.199 42.3246 218.22 38.2997 221.097 34.1432C227.255 25.2482 240.044 15.28 267.673 10.5924V13.2679C240.844 17.902 228.881 27.5327 223.266 35.6443C220.21 40.0585 215.989 44.2748 211.943 47.3932C209.918 48.9541 207.911 50.2602 206.088 51.1825C204.303 52.0857 202.553 52.6946 201.084 52.6946H201.067L201.05 52.6942C187.695 52.3517 178.964 44.1384 170.734 36.3974L170.595 36.2662C162.211 28.3805 154.335 21.0486 142.407 21.0486C130.59 21.0486 122.271 29.2081 113.664 37.6497L113.497 37.813C105.028 46.1193 96.1745 54.7447 83.5845 53.3458C77.1686 52.6329 72.4286 48.9247 68.6152 43.9929C64.8244 39.0903 61.8396 32.8339 58.9699 26.8074L58.9393 26.7431C56.0475 20.6702 53.274 14.8459 49.8695 10.4758C46.4812 6.12644 42.6064 3.3961 37.5409 3.24712C28.9859 2.9955 20.8123 6.82753 14.0824 11.7765C7.55272 16.5782 2.52202 22.3298 0 26.0628Z" fill="#7073BE"/>
</svg>
