<svg width="25" height="28" viewBox="0 0 25 28" fill="none" xmlns="http://www.w3.org/2000/svg">
<path d="M17.7545 12.0313C17.7545 11.4272 17.2667 10.9375 16.6649 10.9375H5.44213C4.84035 10.9375 4.35254 11.4272 4.35254 12.0313C4.35254 12.6353 4.84035 13.125 5.44213 13.125H16.6649C17.2667 13.125 17.7545 12.6353 17.7545 12.0313Z" fill="#4C4C4C"/>
<path d="M5.44213 15.3125C4.84035 15.3125 4.35254 15.8022 4.35254 16.4063C4.35254 17.0103 4.84035 17.5 5.44213 17.5H12.2581C12.8599 17.5 13.3477 17.0103 13.3477 16.4063C13.3477 15.8022 12.8599 15.3125 12.2581 15.3125H5.44213Z" fill="#4C4C4C"/>
<path d="M8.00243 25.8125H4.35835C3.15675 25.8125 2.17918 24.8312 2.17918 23.625V4.375C2.17918 3.16881 3.15675 2.1875 4.35835 2.1875H17.7542C18.9558 2.1875 19.9334 3.16881 19.9334 4.375V11.1016C19.9334 11.7056 20.4212 12.1953 21.023 12.1953C21.6248 12.1953 22.1126 11.7056 22.1126 11.1016V4.375C22.1126 1.96263 20.1574 0 17.7542 0H4.35835C1.95516 0 0 1.96263 0 4.375V23.625C0 26.0374 1.95516 28 4.35835 28H8.00243C8.60421 28 9.09201 27.5103 9.09201 26.9062C9.09201 26.3022 8.60421 25.8125 8.00243 25.8125Z" fill="#4C4C4C"/>
<path d="M24.0426 15.8359C22.7681 14.5566 20.6944 14.5565 19.4207 15.8351L13.4387 21.8266C13.3116 21.9539 13.2179 22.1106 13.1658 22.283L11.863 26.5883C11.7475 26.97 11.8481 27.3844 12.1256 27.67C12.3335 27.8839 12.6159 28 12.9056 28C13.0025 28 13.1004 27.9869 13.1964 27.9602L17.5943 26.7373C17.7753 26.687 17.9402 26.5906 18.0731 26.4574L24.0426 20.4764C25.3171 19.197 25.3171 17.1154 24.0426 15.8359ZM16.7364 24.706L14.5239 25.3213L15.1714 23.1814L19.2077 19.1386L20.749 20.6857L16.7364 24.706ZM22.5025 18.9289L22.2914 19.1404L20.7504 17.5936L20.9608 17.3828C21.3857 16.9564 22.0769 16.9564 22.5017 17.3828C22.9266 17.8093 22.9266 18.5031 22.5025 18.9289Z" fill="#4C4C4C"/>
<path d="M16.6649 6.5625H5.44213C4.84035 6.5625 4.35254 7.05217 4.35254 7.65625C4.35254 8.26033 4.84035 8.75 5.44213 8.75H16.6649C17.2667 8.75 17.7545 8.26033 17.7545 7.65625C17.7545 7.05217 17.2667 6.5625 16.6649 6.5625Z" fill="#4C4C4C"/>
</svg>
