<svg width="266" height="47" viewBox="0 0 266 47" fill="none" xmlns="http://www.w3.org/2000/svg">
<path d="M63.39 16.06H56.07V37H63.39C70.08 37 74.43 32.89 74.43 26.56C74.43 20.2 70.08 16.06 63.39 16.06ZM60.27 33.43V19.6H63.24C67.65 19.6 70.14 22.21 70.14 26.56C70.14 30.91 67.65 33.43 63.24 33.43H60.27ZM90.4439 37H94.8839L87.3539 16.03H82.4639L74.9339 37H79.3439L80.7239 33.01H89.0639L90.4439 37ZM87.9239 29.65H81.8639L84.8939 20.89L87.9239 29.65ZM116.779 26.47C116.779 20.2 112.039 15.76 106.069 15.76C100.159 15.76 95.3285 20.2 95.3285 26.47C95.3285 32.77 100.159 37.21 106.069 37.21C112.009 37.21 116.779 32.77 116.779 26.47ZM99.6485 26.47C99.6485 22.21 102.259 19.54 106.069 19.54C109.849 19.54 112.459 22.21 112.459 26.47C112.459 30.73 109.849 33.46 106.069 33.46C102.259 33.46 99.6485 30.73 99.6485 26.47ZM125.282 26.5C125.282 32.77 129.872 37.18 135.902 37.18C140.552 37.18 144.332 34.72 145.742 30.4H140.912C139.922 32.44 138.122 33.43 135.872 33.43C132.212 33.43 129.602 30.73 129.602 26.5C129.602 22.24 132.212 19.57 135.872 19.57C138.122 19.57 139.922 20.56 140.912 22.57H145.742C144.332 18.28 140.552 15.79 135.902 15.79C129.872 15.79 125.282 20.23 125.282 26.5ZM165.979 28.69C165.979 23.44 162.229 20.11 157.429 20.11C152.629 20.11 148.879 23.44 148.879 28.69C148.879 33.91 152.509 37.27 157.309 37.27C162.139 37.27 165.979 33.91 165.979 28.69ZM153.139 28.69C153.139 25.36 155.149 23.77 157.369 23.77C159.589 23.77 161.659 25.36 161.659 28.69C161.659 31.99 159.529 33.61 157.309 33.61C155.059 33.61 153.139 31.99 153.139 28.69ZM181.3 37H185.5V27.25C185.5 22.66 182.74 20.14 178.87 20.14C176.74 20.14 174.94 21.04 173.86 22.45V20.38H169.66V37H173.86V27.82C173.86 25.15 175.33 23.71 177.61 23.71C179.83 23.71 181.3 25.15 181.3 27.82V37ZM190.754 31.84C190.754 35.65 192.884 37 196.064 37H198.704V33.46H196.754C195.434 33.46 194.984 32.98 194.984 31.87V23.83H198.704V20.38H194.984V16.27H190.754V20.38H188.774V23.83H190.754V31.84ZM206.525 28.72C206.525 25.51 208.025 24.55 210.515 24.55H211.625V20.14C209.315 20.14 207.575 21.25 206.525 22.96V20.38H202.325V37H206.525V28.72ZM231.104 28.69C231.104 23.44 227.354 20.11 222.554 20.11C217.754 20.11 214.004 23.44 214.004 28.69C214.004 33.91 217.634 37.27 222.434 37.27C227.264 37.27 231.104 33.91 231.104 28.69ZM218.264 28.69C218.264 25.36 220.274 23.77 222.494 23.77C224.714 23.77 226.784 25.36 226.784 28.69C226.784 31.99 224.654 33.61 222.434 33.61C220.184 33.61 218.264 31.99 218.264 28.69ZM234.784 37H238.984V14.8H234.784V37ZM256.634 32.26C256.514 26.17 247.304 28.06 247.304 25.03C247.304 24.07 248.114 23.44 249.674 23.44C251.324 23.44 252.344 24.31 252.464 25.6H256.484C256.244 22.3 253.814 20.11 249.794 20.11C245.684 20.11 243.224 22.33 243.224 25.09C243.224 31.18 252.614 29.29 252.614 32.26C252.614 33.22 251.714 33.97 250.064 33.97C248.384 33.97 247.214 33.01 247.064 31.75H242.834C243.014 34.84 245.924 37.27 250.094 37.27C254.144 37.27 256.634 35.11 256.634 32.26Z" fill="url(#paint0_linear_3881_15716)"/>
<path d="M12.5 23.125H10.625V21.25C10.625 20.5606 10.0644 20 9.375 20H8.125C7.43563 20 6.875 20.5606 6.875 21.25V23.125H5C4.31062 23.125 3.75 23.6856 3.75 24.375V25.625C3.75 26.3144 4.31062 26.875 5 26.875H6.875V28.75C6.875 29.4394 7.43563 30 8.125 30H9.375C10.0644 30 10.625 29.4394 10.625 28.75V26.875H12.5C13.1894 26.875 13.75 26.3144 13.75 25.625V24.375C13.75 23.6856 13.1894 23.125 12.5 23.125Z" fill="#B396DB"/>
<path d="M18.125 27.5H16.875C16.53 27.5 16.25 27.7794 16.25 28.125C16.25 28.4706 16.53 28.75 16.875 28.75H18.125C18.47 28.75 18.75 28.4706 18.75 28.125C18.75 27.7794 18.47 27.5 18.125 27.5Z" fill="url(#paint1_linear_3881_15716)"/>
<path d="M23.125 27.5H21.875C21.53 27.5 21.25 27.7794 21.25 28.125C21.25 28.4706 21.53 28.75 21.875 28.75H23.125C23.47 28.75 23.75 28.4706 23.75 28.125C23.75 27.7794 23.47 27.5 23.125 27.5Z" fill="url(#paint2_linear_3881_15716)"/>
<path d="M31.25 23.75C32.2855 23.75 33.125 22.9105 33.125 21.875C33.125 20.8395 32.2855 20 31.25 20C30.2145 20 29.375 20.8395 29.375 21.875C29.375 22.9105 30.2145 23.75 31.25 23.75Z" fill="#B396DB"/>
<path d="M31.25 30C32.2855 30 33.125 29.1605 33.125 28.125C33.125 27.0895 32.2855 26.25 31.25 26.25C30.2145 26.25 29.375 27.0895 29.375 28.125C29.375 29.1605 30.2145 30 31.25 30Z" fill="#B396DB"/>
<path d="M28.125 26.875C29.1605 26.875 30 26.0355 30 25C30 23.9645 29.1605 23.125 28.125 23.125C27.0895 23.125 26.25 23.9645 26.25 25C26.25 26.0355 27.0895 26.875 28.125 26.875Z" fill="#B396DB"/>
<path d="M34.375 26.875C35.4105 26.875 36.25 26.0355 36.25 25C36.25 23.9645 35.4105 23.125 34.375 23.125C33.3395 23.125 32.5 23.9645 32.5 25C32.5 26.0355 33.3395 26.875 34.375 26.875Z" fill="#B396DB"/>
<path d="M17.5 23.75H22.5C22.845 23.75 23.125 23.4706 23.125 23.125C23.125 22.7794 22.845 22.5 22.5 22.5H17.5C17.155 22.5 16.875 22.7794 16.875 23.125C16.875 23.4706 17.155 23.75 17.5 23.75Z" fill="#7073BE"/>
<path d="M32.7138 14.4131C32.645 14.3881 32.5731 14.375 32.5 14.375V13.75C32.5 13.0606 31.9394 12.5 31.25 12.5H28.3838L32.7588 8.125H35.625C35.97 8.125 36.25 7.84563 36.25 7.5V4.63375L37.3213 3.5625C37.57 3.68125 37.8413 3.75 38.125 3.75C38.6256 3.75 39.0969 3.555 39.4506 3.20063C40.1812 2.46938 40.1819 1.28063 39.4506 0.549375C38.7425 -0.15875 37.5075 -0.15875 36.7994 0.549375C36.2238 1.125 36.1081 1.98125 36.4387 2.6775L35.1831 3.93313C35.0656 4.05 35 4.20875 35 4.375V6.875H32.5C32.3344 6.875 32.175 6.94063 32.0581 7.05813L27.595 11.5213C27.3025 10.3113 26.7319 9.21 25.9488 8.29188L27.0856 7.15438C27.2031 7.03688 27.2688 6.87875 27.2688 6.7125V5.5575C27.9144 5.30563 28.375 4.68063 28.375 3.94688C28.375 2.99188 27.5981 2.215 26.6431 2.215C25.6881 2.215 24.9113 2.99188 24.9113 3.94688C24.9113 4.68125 25.3725 5.30688 26.0194 5.55813V6.45438L25.0656 7.40875C23.8488 6.37125 22.3125 5.7025 20.6256 5.56813V3.34313C21.2719 3.09125 21.7325 2.46625 21.7325 1.73187C21.7319 0.776875 20.955 0 20 0C19.045 0 18.2681 0.776875 18.2681 1.73187C18.2681 2.46625 18.7288 3.09125 19.375 3.34313V5.5675C17.6881 5.70188 16.1519 6.37063 14.935 7.40812L13.9813 6.45375V5.5575C14.6281 5.30625 15.0894 4.68063 15.0894 3.94625C15.0894 2.99125 14.3125 2.21438 13.3575 2.21438C12.4025 2.21438 11.625 2.99125 11.625 3.94625C11.625 4.68 12.0856 5.305 12.7313 5.55687V6.7125C12.7313 6.87875 12.7969 7.0375 12.9144 7.15438L14.0513 8.29188C13.2681 9.21 12.6975 10.3113 12.405 11.5213L7.94188 7.05813C7.825 6.94063 7.66563 6.875 7.5 6.875H5V4.375C5 4.20875 4.93438 4.05 4.81687 3.93313L3.56125 2.6775C3.89188 1.98125 3.77625 1.125 3.20125 0.549375C2.4925 -0.15875 1.2575 -0.15875 0.549375 0.549375C-0.18125 1.28063 -0.18125 2.46938 0.549375 3.20063C0.903125 3.555 1.37437 3.75 1.875 3.75C2.15875 3.75 2.43 3.68125 2.67875 3.5625L3.75 4.63375V7.5C3.75 7.84563 4.03 8.125 4.375 8.125H7.24125L11.6163 12.5H8.75C8.06063 12.5 7.5 13.0606 7.5 13.75V14.375C7.42688 14.375 7.355 14.3881 7.28625 14.4131C7.21375 14.4394 0 17.1675 0 26.25C0 34.3013 0.35875 40 5 40H6.875C7.035 40 7.18875 39.9381 7.305 39.8288L14.18 33.31C14.1975 33.2938 14.2138 33.2756 14.2294 33.2575L15.3525 31.9163C15.7094 31.4931 16.2325 31.25 16.7875 31.25H23.2125C23.7675 31.25 24.2906 31.4931 24.6456 31.9138L25.77 33.2575C25.7856 33.2756 25.8019 33.2938 25.8194 33.31L32.6944 39.8288C32.8113 39.9381 32.965 40 33.125 40H35C39.6413 40 40 34.3013 40 26.25C40 17.1675 32.7863 14.4394 32.7138 14.4131ZM27.8013 13.75H31.25V14.375H27.7475C27.7744 14.1694 27.7906 13.9606 27.8013 13.75ZM20 9.08875C22.3538 9.08875 24.2688 11.0031 24.2688 13.3569C24.2688 15.7113 22.3538 17.6256 20 17.6256C17.6462 17.6256 15.7313 15.7113 15.7313 13.3569C15.7313 11.0031 17.6462 9.08875 20 9.08875ZM8.75 13.75H12.1988C12.2094 13.9606 12.2263 14.1694 12.2531 14.375H8.75V13.75ZM35 38.75H33.3744L26.7063 32.4281L25.6025 31.1094C25.0075 30.4038 24.1363 30 23.2125 30H16.7875C15.8638 30 14.9925 30.4038 14.3956 31.1113L13.2938 32.4275L6.62563 38.75H5C2.12625 38.75 1.25 35.8294 1.25 26.25C1.25 18.5181 6.78375 15.9656 7.6175 15.625H12.5169C13.4919 18.835 16.4762 21.1788 20 21.1788C23.5238 21.1788 26.5088 18.835 27.4831 15.625H32.3819C33.22 15.9675 38.75 18.5213 38.75 26.25C38.75 35.8294 37.8738 38.75 35 38.75Z" fill="url(#paint3_linear_3881_15716)"/>
<path d="M19.4644 16.8081C19.5775 16.9963 19.7806 17.1113 20 17.1113C20.2194 17.1113 20.4231 16.9956 20.5356 16.8081L22.4131 13.6788C22.5319 13.4813 22.5319 13.2331 22.4131 13.0356L20.5356 9.90688C20.31 9.53063 19.6894 9.53063 19.4638 9.90688L17.5863 13.0356C17.4675 13.2331 17.4675 13.4813 17.5863 13.6788L19.4644 16.8081Z" fill="#7073BE"/>
<path d="M31.25 18.125H32.2412L33.3081 19.1919C33.43 19.3138 33.59 19.375 33.75 19.375C33.91 19.375 34.07 19.3138 34.1919 19.1919C34.4363 18.9475 34.4363 18.5525 34.1919 18.3081L32.9419 17.0581C32.825 16.9406 32.6656 16.875 32.5 16.875H31.25C30.905 16.875 30.625 17.1544 30.625 17.5C30.625 17.8456 30.905 18.125 31.25 18.125Z" fill="#7073BE"/>
<defs>
<linearGradient id="paint0_linear_3881_15716" x1="260.564" y1="4.00001" x2="62.6908" y2="58.7612" gradientUnits="userSpaceOnUse">
<stop stop-color="#7880E7"/>
<stop offset="1" stop-color="#7073BE"/>
</linearGradient>
<linearGradient id="paint1_linear_3881_15716" x1="17.5" y1="1.27688" x2="17.5" y2="38.2063" gradientUnits="userSpaceOnUse">
<stop stop-color="#B396DB"/>
<stop offset="0.5" stop-color="#7073BE"/>
<stop offset="1" stop-color="#7073BE"/>
</linearGradient>
<linearGradient id="paint2_linear_3881_15716" x1="22.5" y1="1.27688" x2="22.5" y2="38.2063" gradientUnits="userSpaceOnUse">
<stop stop-color="#B396DB"/>
<stop offset="0.5" stop-color="#7073BE"/>
<stop offset="1" stop-color="#7073BE"/>
</linearGradient>
<linearGradient id="paint3_linear_3881_15716" x1="20" y1="0" x2="20" y2="40" gradientUnits="userSpaceOnUse">
<stop stop-color="#7073BE"/>
<stop offset="1" stop-color="#7880E4"/>
</linearGradient>
</defs>
</svg>
