<svg width="30" height="30" viewBox="0 0 30 30" fill="none" xmlns="http://www.w3.org/2000/svg">
<path d="M29.9414 4.00549C29.8097 3.62761 29.4811 3.36416 29.0833 3.31816L26.9302 3.06982L26.6816 0.91696C26.6358 0.519163 26.3726 0.19026 25.9945 0.0586531C25.6166 -0.0731828 25.206 0.0208876 24.9229 0.304014L20.6668 4.56007C20.4423 4.78461 20.3343 5.09428 20.3707 5.40991L20.6785 8.07821L19.7305 9.02647C15.0455 4.98007 7.93688 5.17966 3.49108 9.62546C-1.16369 14.2802 -1.16369 21.8542 3.49108 26.5089C8.14585 31.1637 15.7198 31.1637 20.3745 26.5089C24.8203 22.0631 25.0199 14.9545 20.9735 10.2698L21.9218 9.3215L24.5901 9.62935C24.9055 9.66574 25.2154 9.55794 25.4399 9.33317L29.696 5.07712C29.9791 4.79399 30.073 4.38338 29.9414 4.00549ZM19.1313 25.2659C15.162 29.2351 8.7034 29.2351 4.73414 25.2659C0.764866 21.2964 0.764866 14.838 4.73414 10.8685C8.49421 7.10867 14.4877 6.91046 18.4833 10.2736L16.8759 11.8811C13.7697 9.39543 9.21106 9.59135 6.33402 12.4684C3.24686 15.5556 3.24686 20.5788 6.33402 23.666C9.42118 26.7531 14.4444 26.7531 17.5316 23.666C20.4087 20.7889 20.6046 16.2303 18.1189 13.1241L19.7264 11.5167C23.0895 15.5123 22.8913 21.5058 19.1313 25.2659ZM11.4685 18.5315C11.8118 18.8748 12.3685 18.8748 12.7118 18.5315L13.8805 17.3626C14.1428 18.0929 13.9819 18.9423 13.3978 19.5264C12.5916 20.3328 11.2797 20.3328 10.4736 19.5264C9.66723 18.7203 9.66723 17.4086 10.4736 16.6022C11.0575 16.0181 11.9071 15.8572 12.6372 16.1195L11.4685 17.2884C11.1252 17.6315 11.1252 18.1882 11.4685 18.5315ZM13.9471 14.8096C12.4724 13.8982 10.5081 14.0813 9.23029 15.3592C7.73867 16.8508 7.73867 19.2781 9.23029 20.7697C10.7219 22.2613 13.1492 22.2616 14.6408 20.7697C15.9187 19.4919 16.1018 17.5276 15.1904 16.0529L16.8658 14.3773C18.6714 16.7883 18.4792 20.2321 16.2883 22.4229C13.8867 24.8246 9.97873 24.8246 7.57708 22.4229C5.17542 20.0213 5.17542 16.1133 7.57708 13.7117C9.7677 11.5208 13.2117 11.3283 15.6225 13.1342L13.9471 14.8096ZM24.4441 7.8427L22.394 7.60603L22.1573 5.55594L25.1069 2.60634L25.2557 3.89425C25.3074 4.34263 25.6567 4.69237 26.1057 4.74455L27.3937 4.8931L24.4441 7.8427Z" fill="#4D4D4D"/>
</svg>
