<svg width="66" height="66" viewBox="0 0 66 66" fill="none" xmlns="http://www.w3.org/2000/svg">
<g filter="url(#filter0_d_3111_15725)">
<path d="M51 23C51 13.0589 42.9411 5 33 5C23.0589 5 15 13.0589 15 23C15 32.9411 23.0589 41 33 41C42.9411 41 51 32.9411 51 23Z" fill="#0F8CEA"/>
</g>
<path d="M34.2719 32.0311V23.4665H37.1468L37.5778 20.1287H34.2719V17.9977C34.2719 17.0314 34.5403 16.3728 35.9261 16.3728H37.6936V13.3884C36.8381 13.2979 35.9783 13.254 35.118 13.257C32.5696 13.257 30.825 14.8124 30.825 17.6691V20.1287H27.9429V23.4665H30.825V32.0311H34.2719Z" fill="white"/>
<defs>
<filter id="filter0_d_3111_15725" x="0" y="0" width="66" height="66" filterUnits="userSpaceOnUse" color-interpolation-filters="sRGB">
<feFlood flood-opacity="0" result="BackgroundImageFix"/>
<feColorMatrix in="SourceAlpha" type="matrix" values="0 0 0 0 0 0 0 0 0 0 0 0 0 0 0 0 0 0 127 0" result="hardAlpha"/>
<feOffset dy="10"/>
<feGaussianBlur stdDeviation="7.5"/>
<feColorMatrix type="matrix" values="0 0 0 0 0.0392157 0 0 0 0 0.501961 0 0 0 0 0.92549 0 0 0 0.1 0"/>
<feBlend mode="normal" in2="BackgroundImageFix" result="effect1_dropShadow_3111_15725"/>
<feBlend mode="normal" in="SourceGraphic" in2="effect1_dropShadow_3111_15725" result="shape"/>
</filter>
</defs>
</svg>
