<svg width="26" height="30" viewBox="0 0 26 30" fill="none" xmlns="http://www.w3.org/2000/svg">
<path d="M24.0268 11.8309L14.2308 1.88984C13.2181 0.862107 11.5701 0.862049 10.5573 1.88984C9.64685 2.81369 9.56844 4.22269 10.2408 5.2288L10.2271 5.298C9.52087 8.88188 7.80146 12.1423 5.25464 14.7267L0.761442 19.2864C-0.253727 20.3167 -0.2539 21.984 0.761442 23.0143L3.21039 25.4994C4.2255 26.5296 5.86864 26.5297 6.88386 25.4994L7.49613 24.8781L11.7819 29.2273C12.797 30.2575 14.4401 30.2576 15.4553 29.2273C16.4681 28.1996 16.4681 26.5272 15.4553 25.4995L13.6186 23.6356L14.2308 23.0143C15.246 21.9841 15.2461 20.3168 14.2308 19.2865L13.8148 18.8642C15.8615 17.4099 18.1861 16.3975 20.6684 15.8937L20.7375 15.8797C21.751 16.574 23.1362 16.4624 24.0268 15.5586H24.0269C25.0395 14.5309 25.0395 12.8587 24.0268 11.8309ZM5.65939 24.2568C5.32104 24.6001 4.77321 24.6002 4.43486 24.2568L1.98592 21.7716C1.64751 21.4281 1.64751 20.8724 1.98592 20.529L6.2716 16.1798L9.94508 19.9077C9.52577 20.3332 6.08903 23.8208 5.65939 24.2568ZM14.2308 26.742C14.5683 27.0846 14.5683 27.642 14.2308 27.9846C13.8932 28.3272 13.3438 28.3272 13.0063 27.9846L8.72054 23.6355L9.94508 22.3929L14.2308 26.742ZM11.1695 21.1503C11.4298 20.8861 11.8195 20.4815 12.4344 19.9486L13.0063 20.529C13.3447 20.8724 13.3447 21.4281 13.0063 21.7716L12.394 22.3929L11.1695 21.1503ZM11.2063 18.7025L7.45918 14.8999C9.46729 12.5468 10.9053 9.76916 11.6747 6.75159L19.2358 14.4245C16.2622 15.2052 13.5251 16.6646 11.2063 18.7025ZM22.8022 14.316C22.4638 14.6593 21.9161 14.6593 21.5777 14.316L11.7818 4.37503C11.4433 4.03155 11.4433 3.47585 11.7818 3.13244C12.1202 2.78902 12.6679 2.78902 13.0063 3.13244L22.8022 13.0733C23.1397 13.4159 23.1397 13.9733 22.8022 14.316Z" fill="#4C4C4C"/>
<path d="M6.88382 19.2864C6.54575 18.9433 5.99746 18.9433 5.65934 19.2864L4.43486 20.529C4.09674 20.8721 4.09674 21.4285 4.43486 21.7716C4.77293 22.1147 5.32128 22.1147 5.65934 21.7716L6.88382 20.529C7.22194 20.1859 7.22194 19.6295 6.88382 19.2864Z" fill="#4C4C4C"/>
<path d="M18.2073 0C17.7292 0 17.3415 0.393398 17.3415 0.87867V2.63601C17.3415 3.12128 17.7292 3.51468 18.2073 3.51468C18.6855 3.51468 19.0732 3.12128 19.0732 2.63601V0.87867C19.0732 0.393398 18.6855 0 18.2073 0Z" fill="#4C4C4C"/>
<path d="M25.1341 7.0293H23.4024C22.9242 7.0293 22.5366 7.42269 22.5366 7.90797C22.5366 8.39324 22.9242 8.78664 23.4024 8.78664H25.1341C25.6123 8.78664 26 8.39324 26 7.90797C26 7.42269 25.6123 7.0293 25.1341 7.0293Z" fill="#4C4C4C"/>
<path d="M24.0147 2.01467C23.6766 1.67154 23.1283 1.67154 22.7902 2.01467L21.0585 3.77201C20.7204 4.11513 20.7204 4.67148 21.0585 5.0146C21.3965 5.35773 21.9448 5.35779 22.2829 5.0146L24.0147 3.25726C24.3528 2.91414 24.3528 2.35785 24.0147 2.01467Z" fill="#4C4C4C"/>
</svg>
