<svg width="66" height="66" viewBox="0 0 66 66" fill="none" xmlns="http://www.w3.org/2000/svg">
<g filter="url(#filter0_d_3111_15728)">
<path d="M33 41C42.9411 41 51 32.9411 51 23C51 13.0589 42.9411 5 33 5C23.0589 5 15 13.0589 15 23C15 32.9411 23.0589 41 33 41Z" fill="#5CB2F4"/>
</g>
<path d="M42.9731 16.7934C42.2874 17.0975 41.5499 17.3031 40.7764 17.3949C41.5661 16.9218 42.1722 16.1731 42.4583 15.2795C41.7193 15.7179 40.9004 16.0359 40.0297 16.2073C39.332 15.4643 38.3381 15 37.2374 15C35.1257 15 33.413 16.7127 33.413 18.8244C33.413 19.1242 33.4469 19.416 33.5125 19.6961C30.3341 19.5366 27.5159 18.0141 25.6295 15.6996C25.3003 16.2644 25.1115 16.9218 25.1115 17.6225C25.1115 18.9491 25.7872 20.1202 26.8128 20.8058C26.1862 20.7861 25.5961 20.6142 25.0807 20.327C25.0804 20.3432 25.0804 20.3595 25.0804 20.3754C25.0804 22.2285 26.3993 23.7741 28.1485 24.1252C27.8279 24.213 27.4894 24.2595 27.1411 24.2595C26.8941 24.2595 26.6548 24.2358 26.4215 24.1913C26.9081 25.7104 28.3202 26.8162 29.9941 26.8472C28.685 27.8732 27.0362 28.4844 25.2439 28.4844C24.9358 28.4844 24.6307 28.4664 24.332 28.4308C26.0236 29.5163 28.0344 30.1492 30.194 30.1492C37.2286 30.1492 41.0756 24.3217 41.0756 19.2674C41.0756 19.1017 41.0719 18.9365 41.0644 18.7728C41.8123 18.2338 42.4606 17.5604 42.9731 16.7934Z" fill="white"/>
<defs>
<filter id="filter0_d_3111_15728" x="0" y="0" width="66" height="66" filterUnits="userSpaceOnUse" color-interpolation-filters="sRGB">
<feFlood flood-opacity="0" result="BackgroundImageFix"/>
<feColorMatrix in="SourceAlpha" type="matrix" values="0 0 0 0 0 0 0 0 0 0 0 0 0 0 0 0 0 0 127 0" result="hardAlpha"/>
<feOffset dy="10"/>
<feGaussianBlur stdDeviation="7.5"/>
<feColorMatrix type="matrix" values="0 0 0 0 0.32549 0 0 0 0 0.678431 0 0 0 0 0.94902 0 0 0 0.1 0"/>
<feBlend mode="normal" in2="BackgroundImageFix" result="effect1_dropShadow_3111_15728"/>
<feBlend mode="normal" in="SourceGraphic" in2="effect1_dropShadow_3111_15728" result="shape"/>
</filter>
</defs>
</svg>
