<svg width="44" height="45" viewBox="0 0 44 45" fill="none" xmlns="http://www.w3.org/2000/svg">
<path d="M0 22.5C0 10.3497 9.84974 0.5 22 0.5C34.1503 0.5 44 10.3497 44 22.5C44 34.6503 34.1503 44.5 22 44.5C9.84974 44.5 0 34.6503 0 22.5Z" fill="#FFB100"/>
<path d="M15.2857 29.5781C15.034 29.5756 14.7913 29.4845 14.6 29.3209C13.5008 28.4558 12.6075 27.3573 11.9849 26.1046C11.3623 24.852 11.0259 23.4767 11 22.0781C11.0259 20.6795 11.3623 19.3042 11.9849 18.0515C12.6075 16.7989 13.5008 15.7003 14.6 14.8352C14.7037 14.7256 14.8294 14.6391 14.9689 14.5814C15.1084 14.5237 15.2584 14.4961 15.4093 14.5004C15.5602 14.5048 15.7084 14.541 15.8443 14.6066C15.9802 14.6722 16.1008 14.7658 16.198 14.8813C16.2952 14.9967 16.3669 15.1314 16.4085 15.2765C16.45 15.4216 16.4604 15.5739 16.4391 15.7233C16.4177 15.8727 16.3649 16.0159 16.2844 16.1435C16.2038 16.2711 16.0971 16.3803 15.9714 16.4638C15.1163 17.1342 14.4195 17.9849 13.9306 18.9553C13.4418 19.9257 13.1728 20.9919 13.1429 22.0781C13.1728 23.1643 13.4418 24.2305 13.9306 25.2009C14.4195 26.1712 15.1163 27.0219 15.9714 27.6924C16.1874 27.8737 16.3231 28.1329 16.3492 28.4138C16.3753 28.6946 16.2896 28.9743 16.1107 29.1924C16.01 29.3133 15.8838 29.4106 15.7412 29.4772C15.5986 29.5439 15.4431 29.5783 15.2857 29.5781ZM26.5357 27.4352C26.3783 27.4355 26.2228 27.4011 26.0802 27.3344C25.9376 27.2677 25.8115 27.1705 25.7107 27.0495C25.5318 26.8315 25.4462 26.5517 25.4722 26.2709C25.4983 25.9901 25.634 25.7309 25.85 25.5495C26.3795 25.1351 26.8113 24.6093 27.115 24.0094C27.4186 23.4095 27.5867 22.7501 27.6071 22.0781C27.5867 21.406 27.4186 20.7467 27.115 20.1468C26.8113 19.5469 26.3795 19.0211 25.85 18.6067C25.7243 18.5231 25.6177 18.414 25.5371 18.2864C25.4565 18.1587 25.4038 18.0155 25.3824 17.8661C25.361 17.7167 25.3714 17.5645 25.413 17.4194C25.4545 17.2743 25.5262 17.1396 25.6234 17.0241C25.7207 16.9087 25.8412 16.8151 25.9771 16.7495C26.113 16.6838 26.2613 16.6477 26.4121 16.6433C26.563 16.639 26.7131 16.6665 26.8525 16.7242C26.992 16.7819 27.1177 16.8684 27.2214 16.9781C27.9945 17.5877 28.6224 18.3615 29.0597 19.2435C29.497 20.1255 29.7328 21.0937 29.75 22.0781C29.7328 23.0624 29.497 24.0306 29.0597 24.9127C28.6224 25.7947 27.9945 26.5685 27.2214 27.1781C27.0302 27.3417 26.7874 27.4327 26.5357 27.4352Z" fill="white"/>
<path d="M17.9643 27.4352C17.7126 27.4327 17.4698 27.3417 17.2786 27.1781C16.5055 26.5685 15.8776 25.7947 15.4403 24.9127C15.003 24.0306 14.7672 23.0624 14.75 22.0781C14.7672 21.0937 15.003 20.1255 15.4403 19.2435C15.8776 18.3615 16.5055 17.5877 17.2786 16.9781C17.3823 16.8684 17.508 16.7819 17.6475 16.7242C17.7869 16.6665 17.937 16.639 18.0879 16.6433C18.2387 16.6477 18.387 16.6838 18.5229 16.7495C18.6588 16.8151 18.7793 16.9087 18.8766 17.0241C18.9738 17.1396 19.0455 17.2743 19.087 17.4194C19.1286 17.5645 19.139 17.7167 19.1176 17.8661C19.0962 18.0155 19.0435 18.1587 18.9629 18.2864C18.8823 18.414 18.7757 18.5231 18.65 18.6067C18.1205 19.0211 17.6887 19.5469 17.385 20.1468C17.0814 20.7467 16.9133 21.406 16.8929 22.0781C16.9133 22.7501 17.0814 23.4095 17.385 24.0094C17.6887 24.6093 18.1205 25.1351 18.65 25.5495C18.866 25.7309 19.0017 25.9901 19.0278 26.2709C19.0538 26.5517 18.9682 26.8315 18.7893 27.0495C18.6885 27.1705 18.5624 27.2677 18.4198 27.3344C18.2772 27.4011 18.1217 27.4355 17.9643 27.4352ZM29.2143 29.5781C29.0569 29.5783 28.9014 29.5439 28.7588 29.4772C28.6162 29.4106 28.49 29.3133 28.3893 29.1924C28.2104 28.9743 28.1247 28.6946 28.1508 28.4138C28.1769 28.1329 28.3126 27.8737 28.5286 27.6924C29.3837 27.0219 30.0805 26.1712 30.5693 25.2009C31.0582 24.2305 31.3272 23.1643 31.3571 22.0781C31.3272 20.9919 31.0582 19.9257 30.5693 18.9553C30.0805 17.9849 29.3837 17.1342 28.5286 16.4638C28.4029 16.3803 28.2962 16.2711 28.2156 16.1435C28.1351 16.0159 28.0823 15.8727 28.0609 15.7233C28.0396 15.5739 28.05 15.4216 28.0915 15.2765C28.1331 15.1314 28.2048 14.9967 28.302 14.8813C28.3992 14.7658 28.5197 14.6722 28.6557 14.6066C28.7916 14.541 28.9398 14.5048 29.0907 14.5004C29.2416 14.4961 29.3916 14.5237 29.5311 14.5814C29.6706 14.6391 29.7963 14.7256 29.9 14.8352C30.9992 15.7003 31.8925 16.7989 32.5151 18.0515C33.1377 19.3042 33.4741 20.6795 33.5 22.0781C33.4741 23.4767 33.1377 24.852 32.5151 26.1046C31.8925 27.3573 30.9992 28.4558 29.9 29.3209C29.7087 29.4845 29.466 29.5756 29.2143 29.5781Z" fill="white"/>
<path d="M22.5 23.5C22.2033 23.5 21.9133 23.412 21.6666 23.2472C21.42 23.0824 21.2277 22.8481 21.1142 22.574C21.0007 22.2999 20.9709 21.9983 21.0288 21.7074C21.0867 21.4164 21.2296 21.1491 21.4393 20.9393C21.6491 20.7296 21.9164 20.5867 22.2074 20.5288C22.4983 20.4709 22.7999 20.5006 23.074 20.6142C23.3481 20.7277 23.5824 20.92 23.7472 21.1666C23.912 21.4133 24 21.7033 24 22C24 22.3978 23.842 22.7794 23.5607 23.0607C23.2794 23.342 22.8978 23.5 22.5 23.5Z" fill="white"/>
</svg>
