<svg width="72" height="72" viewBox="0 0 72 72" fill="none" xmlns="http://www.w3.org/2000/svg">
<circle cx="36" cy="36" r="36" fill="#E1DDFF"/>
<path d="M36 50C43.732 50 50 43.732 50 36C50 28.268 43.732 22 36 22C28.268 22 22 28.268 22 36C22 38.4107 22.6093 40.6791 23.6823 42.6596C23.9359 43.1277 24.0311 43.6699 23.9086 44.1879L22.7 49.3L26.5364 47.6566C27.1944 47.3748 27.9469 47.4757 28.5527 47.857C30.7097 49.2147 33.2631 50 36 50Z" fill="#7765FF"/>
<circle cx="31" cy="36" r="1" fill="white"/>
<circle cx="36" cy="36" r="1" fill="white"/>
<circle cx="41" cy="36" r="1" fill="white"/>
</svg>
