<svg width="169" height="30" viewBox="0 0 169 30" fill="none" xmlns="http://www.w3.org/2000/svg">
<path d="M40.0734 10.316H35.4459V23.5537H40.0734C44.3027 23.5537 47.0526 20.9555 47.0526 16.9538C47.0526 12.9332 44.3027 10.316 40.0734 10.316ZM38.1011 21.2969V12.5539H39.9786C42.7665 12.5539 44.3406 14.2039 44.3406 16.9538C44.3406 19.7038 42.7665 21.2969 39.9786 21.2969H38.1011ZM57.1762 23.5537H59.983L55.2228 10.297H52.1314L47.3712 23.5537H50.1591L51.0315 21.0313H56.3038L57.1762 23.5537ZM55.5831 18.9072H51.7521L53.6676 13.3694L55.5831 18.9072ZM73.8242 16.8969C73.8242 12.9332 70.8277 10.1264 67.0536 10.1264C63.3175 10.1264 60.2641 12.9332 60.2641 16.8969C60.2641 20.8796 63.3175 23.6865 67.0536 23.6865C70.8088 23.6865 73.8242 20.8796 73.8242 16.8969ZM62.9951 16.8969C62.9951 14.2039 64.6451 12.516 67.0536 12.516C69.4433 12.516 71.0932 14.2039 71.0932 16.8969C71.0932 19.59 69.4433 21.3158 67.0536 21.3158C64.6451 21.3158 62.9951 19.59 62.9951 16.8969ZM79.1997 16.9159C79.1997 20.8796 82.1013 23.6675 85.9133 23.6675C88.8529 23.6675 91.2426 22.1124 92.1339 19.3814H89.0805C88.4547 20.671 87.3168 21.2969 85.8944 21.2969C83.5806 21.2969 81.9307 19.59 81.9307 16.9159C81.9307 14.2228 83.5806 12.5349 85.8944 12.5349C87.3168 12.5349 88.4547 13.1608 89.0805 14.4315H92.1339C91.2426 11.7194 88.8529 10.1453 85.9133 10.1453C82.1013 10.1453 79.1997 12.9522 79.1997 16.9159ZM104.927 18.3004C104.927 14.9814 102.557 12.8763 99.5224 12.8763C96.4879 12.8763 94.1173 14.9814 94.1173 18.3004C94.1173 21.6003 96.4121 23.7244 99.4465 23.7244C102.5 23.7244 104.927 21.6003 104.927 18.3004ZM96.8103 18.3004C96.8103 16.1952 98.081 15.1901 99.4844 15.1901C100.888 15.1901 102.196 16.1952 102.196 18.3004C102.196 20.3865 100.85 21.4106 99.4465 21.4106C98.0241 21.4106 96.8103 20.3865 96.8103 18.3004ZM114.613 23.5537H117.268V17.39C117.268 14.4883 115.523 12.8953 113.077 12.8953C111.73 12.8953 110.592 13.4642 109.909 14.3556V13.047H107.254V23.5537H109.909V17.7504C109.909 16.0625 110.839 15.1521 112.28 15.1521C113.684 15.1521 114.613 16.0625 114.613 17.7504V23.5537ZM120.589 20.2917C120.589 22.7003 121.936 23.5537 123.946 23.5537H125.615V21.3158H124.382C123.548 21.3158 123.264 21.0124 123.264 20.3107V15.228H125.615V13.047H123.264V10.4488H120.589V13.047H119.338V15.228H120.589V20.2917ZM130.559 18.3193C130.559 16.29 131.508 15.6832 133.082 15.6832H133.783V12.8953C132.323 12.8953 131.223 13.597 130.559 14.678V13.047H127.904V23.5537H130.559V18.3193ZM146.097 18.3004C146.097 14.9814 143.727 12.8763 140.692 12.8763C137.658 12.8763 135.287 14.9814 135.287 18.3004C135.287 21.6003 137.582 23.7244 140.617 23.7244C143.67 23.7244 146.097 21.6003 146.097 18.3004ZM137.98 18.3004C137.98 16.1952 139.251 15.1901 140.654 15.1901C142.058 15.1901 143.366 16.1952 143.366 18.3004C143.366 20.3865 142.02 21.4106 140.617 21.4106C139.194 21.4106 137.98 20.3865 137.98 18.3004ZM148.424 23.5537H151.08V9.51947H148.424V23.5537ZM162.237 20.5572C162.161 16.7073 156.339 17.9021 156.339 15.9866C156.339 15.3797 156.851 14.9814 157.837 14.9814C158.88 14.9814 159.525 15.5314 159.601 16.3469H162.142C161.991 14.2608 160.454 12.8763 157.913 12.8763C155.315 12.8763 153.76 14.2797 153.76 16.0245C153.76 19.8745 159.696 18.6797 159.696 20.5572C159.696 21.1641 159.127 21.6382 158.084 21.6382C157.022 21.6382 156.282 21.0313 156.187 20.2348H153.513C153.627 22.1882 155.467 23.7244 158.103 23.7244C160.663 23.7244 162.237 22.3589 162.237 20.5572Z" fill="url(#paint0_linear_4064_17197)"/>
<g clip-path="url(#clip0_4064_17197)">
<path d="M7.90218 14.7613H6.71686V13.5645C6.71686 13.1244 6.36244 12.7666 5.92664 12.7666H5.13642C4.70062 12.7666 4.34621 13.1244 4.34621 13.5645V14.7613H3.16088C2.72508 14.7613 2.37067 15.1191 2.37067 15.5592V16.357C2.37067 16.7971 2.72508 17.1549 3.16088 17.1549H4.34621V18.3517C4.34621 18.7917 4.70062 19.1496 5.13642 19.1496H5.92664C6.36244 19.1496 6.71686 18.7917 6.71686 18.3517V17.1549H7.90218C8.33799 17.1549 8.6924 16.7971 8.6924 16.357V15.5592C8.6924 15.1191 8.33799 14.7613 7.90218 14.7613Z" fill="#B396DB"/>
<path d="M11.4582 17.5537H10.6679C10.4498 17.5537 10.2728 17.732 10.2728 17.9526C10.2728 18.1733 10.4498 18.3516 10.6679 18.3516H11.4582C11.6763 18.3516 11.8533 18.1733 11.8533 17.9526C11.8533 17.732 11.6763 17.5537 11.4582 17.5537Z" fill="url(#paint1_linear_4064_17197)"/>
<path d="M14.619 17.5537H13.8288C13.6107 17.5537 13.4337 17.732 13.4337 17.9526C13.4337 18.1733 13.6107 18.3516 13.8288 18.3516H14.619C14.8371 18.3516 15.0141 18.1733 15.0141 17.9526C15.0141 17.732 14.8371 17.5537 14.619 17.5537Z" fill="url(#paint2_linear_4064_17197)"/>
<path d="M19.7554 15.1602C20.41 15.1602 20.9407 14.6244 20.9407 13.9634C20.9407 13.3024 20.41 12.7666 19.7554 12.7666C19.1008 12.7666 18.5701 13.3024 18.5701 13.9634C18.5701 14.6244 19.1008 15.1602 19.7554 15.1602Z" fill="#B396DB"/>
<path d="M19.7554 19.1495C20.41 19.1495 20.9407 18.6136 20.9407 17.9527C20.9407 17.2917 20.41 16.7559 19.7554 16.7559C19.1008 16.7559 18.5701 17.2917 18.5701 17.9527C18.5701 18.6136 19.1008 19.1495 19.7554 19.1495Z" fill="#B396DB"/>
<path d="M17.7799 17.1544C18.4345 17.1544 18.9652 16.6185 18.9652 15.9576C18.9652 15.2966 18.4345 14.7607 17.7799 14.7607C17.1252 14.7607 16.5945 15.2966 16.5945 15.9576C16.5945 16.6185 17.1252 17.1544 17.7799 17.1544Z" fill="#B396DB"/>
<path d="M21.7309 17.1544C22.3856 17.1544 22.9162 16.6185 22.9162 15.9576C22.9162 15.2966 22.3856 14.7607 21.7309 14.7607C21.0763 14.7607 20.5456 15.2966 20.5456 15.9576C20.5456 16.6185 21.0763 17.1544 21.7309 17.1544Z" fill="#B396DB"/>
<path d="M11.063 15.1602H14.2239C14.442 15.1602 14.619 14.9819 14.619 14.7612C14.619 14.5406 14.442 14.3623 14.2239 14.3623H11.063C10.8449 14.3623 10.6679 14.5406 10.6679 14.7612C10.6679 14.9819 10.8449 15.1602 11.063 15.1602Z" fill="#7073BE"/>
<path d="M20.6808 9.20085C20.6373 9.1849 20.5919 9.17652 20.5456 9.17652V8.77758C20.5456 8.33755 20.1912 7.97971 19.7554 7.97971H17.9434L20.7092 5.18715H22.5212C22.7393 5.18715 22.9163 5.00883 22.9163 4.78821V2.95869L23.5935 2.27491C23.7507 2.35071 23.9222 2.3946 24.1016 2.3946C24.4181 2.3946 24.716 2.27013 24.9396 2.04393C25.4015 1.57717 25.4019 0.818398 24.9396 0.351642C24.492 -0.100353 23.7112 -0.100353 23.2636 0.351642C22.8997 0.719062 22.8266 1.26561 23.0356 1.71002L22.2418 2.51148C22.1675 2.58609 22.1261 2.68742 22.1261 2.79353V4.38928H20.5456C20.4409 4.38928 20.3402 4.43117 20.2663 4.50617L17.4448 7.35497C17.2599 6.58263 16.8992 5.87971 16.4041 5.29367L17.1228 4.5676C17.1971 4.4926 17.2386 4.39167 17.2386 4.28555V3.54832C17.6467 3.38755 17.9379 2.98861 17.9379 2.52026C17.9379 1.91069 17.4468 1.41481 16.8431 1.41481C16.2393 1.41481 15.7482 1.91069 15.7482 2.52026C15.7482 2.98901 16.0398 3.38835 16.4487 3.54872V4.12079L15.8458 4.72997C15.0765 4.06774 14.1054 3.64087 13.039 3.5551V2.13489C13.4475 1.97412 13.7387 1.57518 13.7387 1.10643C13.7383 0.496855 13.2472 0.000976562 12.6435 0.000976562C12.0397 0.000976562 11.5486 0.496855 11.5486 1.10643C11.5486 1.57518 11.8398 1.97412 12.2484 2.13489V3.5547C11.182 3.64047 10.2108 4.06734 9.44151 4.72957L8.83857 4.1204V3.54832C9.24751 3.38795 9.5391 2.98861 9.5391 2.51986C9.5391 1.91029 9.04798 1.41441 8.44425 1.41441C7.84053 1.41441 7.34901 1.91029 7.34901 2.51986C7.34901 2.98821 7.64021 3.38715 8.04835 3.54792V4.28555C8.04835 4.39167 8.08984 4.493 8.16412 4.5676L8.88282 5.29367C8.38775 5.87971 8.02702 6.58263 7.84211 7.35497L5.02064 4.50617C4.94675 4.43117 4.846 4.38928 4.7413 4.38928H3.16087V2.79353C3.16087 2.68742 3.11938 2.58609 3.0451 2.51148L2.25133 1.71002C2.46034 1.26561 2.38724 0.719062 2.02374 0.351642C1.57569 -0.100353 0.794958 -0.100353 0.3473 0.351642C-0.114581 0.818398 -0.114581 1.57717 0.3473 2.04393C0.570931 2.27013 0.868843 2.3946 1.18532 2.3946C1.3647 2.3946 1.53618 2.35071 1.69343 2.27491L2.37065 2.95869V4.78821C2.37065 5.00883 2.54766 5.18715 2.76576 5.18715H4.57772L7.34348 7.97971H5.53151C5.09571 7.97971 4.7413 8.33755 4.7413 8.77758V9.17652C4.69507 9.17652 4.64963 9.1849 4.60617 9.20085C4.56034 9.21761 0 10.959 0 16.7563C0 21.8954 0.226792 25.5329 3.16087 25.5329H4.34619C4.44734 25.5329 4.54453 25.4934 4.61802 25.4236L8.96421 21.2627C8.97528 21.2523 8.98555 21.2408 8.99543 21.2292L9.70544 20.3731C9.93104 20.103 10.2618 19.9478 10.6126 19.9478H14.6743C15.0252 19.9478 15.3559 20.103 15.5803 20.3715L16.2911 21.2292C16.301 21.2408 16.3113 21.2523 16.3223 21.2627L20.6685 25.4236C20.7424 25.4934 20.8396 25.5329 20.9407 25.5329H22.1261C25.0601 25.5329 25.2869 21.8954 25.2869 16.7563C25.2869 10.959 20.7266 9.21761 20.6808 9.20085ZM17.5752 8.77758H19.7554V9.17652H17.5412C17.5582 9.04527 17.5685 8.91202 17.5752 8.77758ZM12.6435 5.80231C14.1314 5.80231 15.3421 7.02425 15.3421 8.52665C15.3421 10.0294 14.1314 11.2514 12.6435 11.2514C11.1555 11.2514 9.94487 10.0294 9.94487 8.52665C9.94487 7.02425 11.1555 5.80231 12.6435 5.80231ZM5.53151 8.77758H7.71172C7.71844 8.91202 7.72911 9.04527 7.7461 9.17652H5.53151V8.77758ZM22.1261 24.735H21.0984L16.883 20.6998L16.1852 19.858C15.8091 19.4076 15.2583 19.1499 14.6743 19.1499H10.6126C10.0286 19.1499 9.47785 19.4076 9.10053 19.8592L8.40395 20.6994L4.18854 24.735H3.16087C1.34416 24.735 0.790216 22.8708 0.790216 16.7563C0.790216 11.8211 4.2885 10.1918 4.81558 9.97439H7.91283C8.5292 12.0233 10.4158 13.5193 12.6435 13.5193C14.8711 13.5193 16.7581 12.0233 17.3741 9.97439H20.471C21.0008 10.193 24.4967 11.8231 24.4967 16.7563C24.4967 22.8708 23.9428 24.735 22.1261 24.735Z" fill="url(#paint3_linear_4064_17197)"/>
<path d="M12.3049 10.7297C12.3764 10.8498 12.5048 10.9232 12.6435 10.9232C12.7822 10.9232 12.911 10.8494 12.9821 10.7297L14.169 8.73223C14.2441 8.60617 14.2441 8.44779 14.169 8.32173L12.9821 6.32465C12.8395 6.08449 12.4471 6.08449 12.3045 6.32465L11.1176 8.32173C11.0425 8.44779 11.0425 8.60617 11.1176 8.73223L12.3049 10.7297Z" fill="#7073BE"/>
<path d="M19.7554 11.5694H20.382L21.0565 12.2503C21.1335 12.3281 21.2347 12.3672 21.3358 12.3672C21.437 12.3672 21.5381 12.3281 21.6152 12.2503C21.7697 12.0944 21.7697 11.8422 21.6152 11.6862L20.825 10.8884C20.7511 10.8134 20.6503 10.7715 20.5456 10.7715H19.7554C19.5373 10.7715 19.3603 10.9498 19.3603 11.1704C19.3603 11.391 19.5373 11.5694 19.7554 11.5694Z" fill="#7073BE"/>
</g>
<defs>
<linearGradient id="paint0_linear_4064_17197" x1="164.722" y1="2.55372" x2="39.4612" y2="36.8867" gradientUnits="userSpaceOnUse">
<stop stop-color="#7880E7"/>
<stop offset="1" stop-color="#7073BE"/>
</linearGradient>
<linearGradient id="paint1_linear_4064_17197" x1="11.063" y1="0.815518" x2="11.063" y2="24.3875" gradientUnits="userSpaceOnUse">
<stop stop-color="#B396DB"/>
<stop offset="0.5" stop-color="#7073BE"/>
<stop offset="1" stop-color="#7073BE"/>
</linearGradient>
<linearGradient id="paint2_linear_4064_17197" x1="14.2239" y1="0.815518" x2="14.2239" y2="24.3875" gradientUnits="userSpaceOnUse">
<stop stop-color="#B396DB"/>
<stop offset="0.5" stop-color="#7073BE"/>
<stop offset="1" stop-color="#7073BE"/>
</linearGradient>
<linearGradient id="paint3_linear_4064_17197" x1="12.6435" y1="0.000976562" x2="12.6435" y2="25.5329" gradientUnits="userSpaceOnUse">
<stop stop-color="#7073BE"/>
<stop offset="1" stop-color="#7880E4"/>
</linearGradient>
<clipPath id="clip0_4064_17197">
<rect width="25.2869" height="25.5319" fill="white"/>
</clipPath>
</defs>
</svg>
